<?xml version="1.0" standalone="no"?>
<!DOCTYPE svg PUBLIC "-//W3C//DTD SVG 20010904//EN"
 "http://www.w3.org/TR/2001/REC-SVG-20010904/DTD/svg10.dtd">
<svg version="1.0" xmlns="http://www.w3.org/2000/svg"
 width="1500.000000pt" height="500.000000pt" viewBox="0 0 1500.000000 500.000000"
 preserveAspectRatio="xMidYMid meet">

<g transform="translate(0.000000,500.000000) scale(0.100000,-0.100000)"
fill="#000000" stroke="none">
<path d="M0 3565 l0 -1435 21 0 c34 0 74 -30 106 -79 25 -39 34 -73 61 -232
43 -251 42 -279 -6 -349 -29 -41 -45 -56 -66 -58 -36 -4 -83 15 -101 42 -13
18 -15 -13 -15 -271 0 -175 4 -301 10 -315 6 -13 15 -57 20 -98 11 -88 24
-165 45 -275 9 -44 22 -124 30 -178 8 -54 21 -124 29 -155 8 -31 18 -81 22
-109 l7 -53 2328 0 c2010 0 2328 2 2323 14 -8 21 31 39 55 27 10 -6 21 -17 25
-26 5 -13 535 -15 5056 -15 l5050 0 0 2500 0 2500 -7500 0 -7500 0 0 -1435z
m7440 1304 c0 -12 -7 -19 -20 -19 -19 0 -28 28 -14 43 11 11 34 -5 34 -24z
m4814 -105 c23 -9 19 -31 -6 -38 -37 -10 -106 -7 -113 5 -10 16 1 23 53 30 26
3 48 7 49 8 1 0 8 -2 17 -5z m-1171 -51 c-7 -2 -21 -2 -30 0 -10 3 -4 5 12 5
17 0 24 -2 18 -5z m1197 -23 c23 -15 1 -27 -63 -35 -48 -5 -58 -4 -63 10 -4
10 -1 21 7 26 19 12 100 11 119 -1z m-8421 -61 c17 -17 31 -36 31 -43 0 -19
-81 -96 -100 -96 -10 0 -23 6 -29 14 -7 8 -25 18 -41 21 -57 13 -63 52 -16
108 25 31 80 49 108 36 9 -5 30 -23 47 -40z m6851 -30 c0 -10 -7 -19 -15 -19
-15 0 -21 31 -9 43 11 10 24 -3 24 -24z m-947 10 c-8 -8 -16 -8 -30 0 -16 9
-14 10 12 11 21 0 26 -3 18 -11z m855 -17 c2 -15 -2 -22 -12 -22 -11 0 -16 9
-16 26 0 31 23 28 28 -4z m347 -92 c-3 -5 -18 -10 -33 -10 -21 0 -24 2 -12 10
20 13 53 13 45 0z m-2987 -92 c5 -7 12 -26 14 -43 3 -16 7 -36 9 -44 2 -8 -8
-20 -23 -28 -32 -16 -134 -22 -146 -8 -5 6 -12 34 -16 63 -6 48 -5 53 16 62
35 13 134 12 146 -2z m-1673 -173 c0 -19 -10 -21 -70 -16 -19 2 -19 3 4 22 30
25 66 22 66 -6z m303 -11 c-10 -10 -28 6 -28 24 0 15 1 15 17 -1 9 -9 14 -19
11 -23z m-2140 -123 c18 -22 32 -46 32 -53 -1 -21 -53 -76 -83 -87 -28 -11
-69 -2 -82 19 -4 6 -18 15 -31 20 -36 14 -39 36 -10 74 14 19 26 39 26 45 0
12 24 18 76 20 36 1 44 -4 72 -38z m1792 -430 c0 -5 -7 -14 -15 -21 -18 -15
-42 1 -31 19 8 13 46 15 46 2z m-1691 -145 c47 -48 47 -47 -3 -108 -27 -33
-37 -38 -73 -38 -24 0 -43 4 -43 10 0 5 -18 19 -40 30 -22 11 -40 26 -40 33 0
19 58 101 77 109 46 18 78 9 122 -36z m8901 -116 c0 -5 -5 -10 -11 -10 -5 0
-7 5 -4 10 3 6 8 10 11 10 2 0 4 -4 4 -10z m-669 -103 c-7 -7 -15 -6 -26 3
-16 13 -15 15 1 27 15 11 20 11 27 -3 6 -10 5 -20 -2 -27z m-81 9 c0 -21 -21
-31 -31 -15 -14 22 -11 29 11 29 11 0 20 -6 20 -14z m-770 -5 c0 -10 -42 -23
-49 -15 -7 6 20 24 37 24 6 0 12 -4 12 -9z m-1344 -39 c6 -4 21 -63 34 -132
25 -144 36 -174 68 -178 23 -4 30 -26 11 -37 -16 -11 -53 3 -66 24 -7 11 -20
60 -29 108 -29 154 -32 164 -65 176 -16 6 -29 17 -29 23 0 19 55 30 76 16z
m1744 -17 c0 -8 -6 -15 -12 -16 -7 0 -25 -2 -40 -3 -16 -1 -28 -1 -28 1 0 5
56 32 68 33 6 0 12 -7 12 -15z m-891 -40 c38 -53 37 -76 -4 -86 -17 -4 -42
-10 -57 -13 -33 -7 -36 -26 -8 -51 13 -11 30 -16 50 -13 37 6 50 -10 25 -29
-35 -25 -62 -16 -96 33 -38 56 -47 115 -26 167 14 32 20 37 50 37 28 0 39 -7
66 -45z m-211 12 c13 -15 46 -196 38 -204 -7 -7 -10 2 -31 95 -10 43 -22 72
-30 72 -20 0 -23 -20 -14 -75 11 -67 11 -107 0 -101 -4 3 -11 27 -13 53 -6 61
-34 127 -49 117 -11 -7 -9 -50 7 -149 12 -74 -21 -9 -41 82 -21 97 -16 110 48
116 23 2 49 4 58 5 9 1 21 -4 27 -11z m357 3 c-3 -5 -10 -10 -16 -10 -5 0 -9
5 -9 10 0 6 7 10 16 10 8 0 12 -4 9 -10z m-557 -33 c39 -42 60 -138 42 -192
-15 -45 -55 -56 -84 -23 -62 68 -73 217 -18 231 32 9 39 7 60 -16z m915 6 c-7
-2 -19 -2 -25 0 -7 3 -2 5 12 5 14 0 19 -2 13 -5z m-1630 -64 c4 -30 10 -100
13 -156 5 -87 4 -103 -9 -103 -20 0 -32 18 -47 73 -7 26 -17 47 -21 47 -11 0
-11 -1 -14 -63 -4 -75 -37 -91 -50 -24 -4 17 -15 55 -25 82 -31 87 -50 149
-50 168 0 31 28 18 41 -20 6 -21 18 -47 25 -57 13 -19 14 -18 23 7 13 34 29
34 58 0 l22 -28 1 68 c0 84 21 88 33 6z m526 48 c13 -16 5 -27 -20 -27 -44 0
-63 -67 -37 -127 17 -38 37 -52 76 -53 39 0 45 -26 8 -36 -34 -8 -57 2 -85 37
-62 78 -40 214 35 218 6 1 17 -5 23 -12z m699 -15 c3 -17 -2 -22 -17 -22 -14
0 -21 6 -21 18 0 38 33 41 38 4z m552 -47 c0 -5 -5 -3 -10 5 -5 8 -10 20 -10
25 0 6 5 3 10 -5 5 -8 10 -19 10 -25z m-1613 3 c11 -13 27 -40 34 -60 16 -46
7 -57 -50 -65 -55 -7 -69 -25 -41 -53 16 -16 28 -20 50 -15 16 4 34 4 39 0 19
-11 -1 -34 -36 -41 -41 -8 -75 19 -104 81 -24 52 -24 87 1 135 18 34 25 40 53
40 22 0 41 -8 54 -22z m1130 -4 c-3 -3 -12 -4 -19 -1 -8 3 -5 6 6 6 11 1 17
-2 13 -5z m363 -24 c-20 -13 -53 -13 -45 0 3 6 18 10 33 10 21 0 24 -2 12 -10z
m-2110 -46 c0 -12 -6 -15 -22 -10 -13 3 -27 6 -31 6 -5 0 -5 5 -2 10 10 17 55
12 55 -6z m175 -4 c8 -13 -20 -24 -41 -16 -20 8 -9 26 16 26 10 0 22 -5 25
-10z m-387 -17 c2 -9 -8 -13 -32 -13 -20 0 -36 4 -36 9 0 22 60 25 68 4z m137
-22 c0 -22 -3 -43 -7 -46 -9 -9 -22 61 -13 74 13 21 21 10 20 -28z m334 5 c17
-20 2 -46 -25 -46 -26 0 -40 20 -30 45 7 19 40 20 55 1z m-674 -6 c3 -6 -4
-10 -17 -10 -33 0 -48 -18 -48 -59 0 -20 -4 -31 -9 -25 -12 13 -21 68 -13 81
13 19 77 29 87 13z m-200 -25 c0 -5 -11 -12 -25 -13 -14 -2 -32 -10 -41 -18
-23 -20 -31 -6 -12 23 12 18 23 23 47 21 17 -2 31 -7 31 -13z m466 -89 c6 -32
8 -64 5 -71 -5 -15 -69 -29 -96 -20 -38 12 -46 108 -9 125 7 4 28 14 44 22 17
8 33 12 37 9 5 -4 13 -33 19 -65z m339 44 c0 -13 -28 -25 -38 -16 -3 4 0 11 8
16 20 13 30 12 30 0z m-1000 -8 c0 -4 -9 -13 -21 -20 -16 -11 -20 -21 -17 -48
4 -32 2 -34 -27 -34 -16 0 -36 4 -44 9 -10 6 -23 2 -42 -11 -35 -26 -55 -19
-61 22 l-5 32 54 -6 c32 -4 53 -2 53 4 0 5 11 12 24 16 14 3 32 14 42 25 17
19 44 26 44 11z m4423 -9 c-7 -2 -19 -2 -25 0 -7 3 -2 5 12 5 14 0 19 -2 13
-5z m-4673 -23 c0 -5 -6 -10 -14 -10 -8 0 -18 5 -21 10 -3 6 3 10 14 10 12 0
21 -4 21 -10z m474 -25 c4 -12 -3 -15 -33 -15 -25 0 -41 5 -45 15 -4 12 3 15
33 15 25 0 41 -5 45 -15z m126 -27 c0 -6 7 -19 16 -29 12 -13 22 -15 45 -9 26
8 30 6 27 -8 -2 -10 -14 -18 -31 -20 -15 -2 -33 -12 -40 -22 -10 -18 -13 -15
-24 23 -15 51 -17 90 -3 82 6 -3 10 -11 10 -17z m3695 12 c-3 -5 -12 -10 -18
-10 -7 0 -6 4 3 10 19 12 23 12 15 0z m-5145 -10 c13 -9 12 -12 -4 -25 -11 -8
-24 -15 -28 -15 -16 0 -21 32 -7 41 18 11 21 11 39 -1z m199 -11 c-19 -12 -59
-11 -59 0 0 10 49 20 64 13 4 -3 2 -8 -5 -13z m4077 10 c8 -14 -14 -29 -44
-29 -20 0 -23 -5 -20 -27 3 -24 8 -28 41 -31 32 -3 40 -9 54 -37 22 -46 8 -96
-30 -109 -21 -8 -31 -6 -44 7 -15 15 -15 17 3 22 68 22 74 74 9 75 -11 0 -33
12 -49 26 -23 22 -27 32 -22 57 3 16 11 36 17 44 14 16 75 17 85 2z m174 -13
c0 -2 -7 -6 -15 -10 -8 -3 -15 -1 -15 4 0 6 7 10 15 10 8 0 15 -2 15 -4z
m-3322 -23 c2 -8 -5 -13 -17 -13 -21 0 -35 13 -24 24 10 10 36 3 41 -11z
m2603 -23 c26 0 24 -15 -6 -34 -30 -20 -32 -51 -9 -120 13 -38 21 -48 45 -53
41 -8 38 -33 -4 -33 -40 0 -51 17 -68 108 -12 64 -29 92 -55 92 -20 0 -17 14
6 35 11 10 20 24 20 32 0 11 7 9 26 -6 15 -12 35 -21 45 -21z m379 36 c0 -2 9
-39 20 -82 27 -108 26 -132 -6 -144 -42 -16 -72 -12 -88 13 -14 21 -48 188
-40 196 8 9 15 -8 24 -62 12 -77 35 -119 63 -115 19 3 22 9 22 48 0 25 -4 69
-9 98 -5 36 -4 52 3 52 6 0 11 -2 11 -4z m685 -16 c3 -5 -1 -10 -9 -10 -9 0
-16 5 -16 10 0 6 4 10 9 10 6 0 13 -4 16 -10z m-1716 -58 c11 -40 14 -43 40
-37 50 11 91 -52 98 -150 7 -84 -5 -97 -94 -102 -67 -4 -69 -4 -81 22 -10 23
-17 26 -50 23 -32 -3 -38 -7 -47 -35 -13 -45 -35 -42 -36 5 -1 20 -1 40 0 44
0 4 1 53 2 109 1 57 3 109 6 116 7 18 53 17 53 -1 0 -13 95 -224 106 -235 14
-14 13 21 -6 135 -12 70 -23 132 -26 136 -7 12 7 31 15 21 4 -4 13 -27 20 -51z
m-2199 39 c0 -9 -24 -21 -42 -21 -6 0 -6 6 2 15 14 16 40 20 40 6z m3528 -19
c3 -16 -2 -22 -16 -22 -21 0 -36 25 -26 41 10 17 39 5 42 -19z m-3070 1 c-2
-13 -15 -19 -42 -21 -43 -4 -47 17 -5 29 41 12 51 10 47 -8z m2237 -50 c3 -21
13 -69 20 -107 8 -37 12 -72 10 -77 -3 -5 -24 -14 -46 -20 -36 -11 -42 -10
-60 8 -19 18 -39 87 -52 176 -9 60 11 42 22 -20 12 -63 39 -124 58 -130 6 -3
18 6 27 19 12 20 13 32 1 93 -18 89 -18 95 0 95 9 0 16 -14 20 -37z m-208 -18
c9 -16 20 -38 25 -48 14 -28 13 -134 -1 -151 -19 -23 -54 -20 -78 7 -53 59
-65 190 -20 219 24 16 58 3 74 -27z m1103 31 c0 -3 -4 -8 -10 -11 -5 -3 -10
-1 -10 4 0 6 5 11 10 11 6 0 10 -2 10 -4z m337 -32 c-3 -3 -12 -4 -19 -1 -8 3
-5 6 6 6 11 1 17 -2 13 -5z m-2210 -89 c2 -7 -12 -9 -37 -7 -23 2 -40 0 -39
-4 1 -5 1 -20 0 -34 -1 -22 -3 -23 -12 -7 -6 10 -9 25 -7 34 5 27 87 42 95 18z
m163 -5 c0 -5 -9 -10 -20 -10 -11 0 -20 5 -20 10 0 6 9 10 20 10 11 0 20 -4
20 -10z m-370 -15 c0 -16 -55 -22 -64 -6 -8 13 5 21 36 21 18 0 28 -5 28 -15z
m458 -32 c2 -13 -1 -23 -6 -23 -6 0 -17 -3 -25 -6 -15 -5 -31 32 -21 48 11 18
49 3 52 -19z m-648 1 c0 -11 -5 -14 -16 -10 -9 3 -20 6 -25 6 -5 0 -9 5 -9 10
0 6 11 10 25 10 16 0 25 -6 25 -16z m-69 -7 c-1 -4 -1 -28 -1 -53 0 -27 -4
-43 -10 -39 -14 9 -13 108 1 103 6 -2 10 -7 10 -11z m508 -52 c1 -16 -1 -17
-9 -5 -5 8 -9 29 -9 45 1 29 1 29 9 5 4 -14 8 -34 9 -45z m-4604 19 c26 -34
26 -37 13 -81 -15 -51 -24 -58 -90 -67 -46 -7 -49 -6 -83 31 -38 41 -41 53
-24 102 14 39 36 50 105 50 48 1 54 -2 79 -35z m3970 21 c0 -5 -11 -12 -25
-13 -36 -5 -52 -22 -47 -49 6 -32 -11 -40 -22 -11 -9 25 2 67 22 80 16 11 72
5 72 -7z m-878 -12 c3 -7 -3 -9 -17 -6 -29 8 -37 25 -9 21 12 -1 24 -8 26 -15z
m1313 -29 c7 -17 7 -31 0 -42 -5 -10 -10 -12 -10 -4 0 7 -15 12 -41 12 l-40 0
3 -37 c3 -36 5 -38 38 -38 29 0 36 4 38 23 4 26 17 29 26 6 12 -31 5 -40 -41
-53 -44 -14 -47 -13 -65 9 -36 44 -21 99 35 127 23 11 43 21 45 21 1 1 7 -10
12 -24z m340 -4 c0 -5 -9 -10 -21 -10 -11 0 -17 5 -14 10 3 6 13 10 21 10 8 0
14 -4 14 -10z m-960 -15 c-13 -16 -50 -21 -50 -7 0 15 13 22 38 22 21 0 22 -2
12 -15z m-242 -32 c2 -8 -6 -13 -22 -13 -17 0 -26 5 -26 16 0 19 41 16 48 -3z
m4037 7 c3 -6 -1 -13 -10 -16 -19 -8 -30 0 -20 15 8 14 22 14 30 1z m72 4 c-3
-3 -12 -4 -19 -1 -8 3 -5 6 6 6 11 1 17 -2 13 -5z m-3917 -38 c0 -43 -13 -52
-50 -36 -24 10 -33 9 -52 -4 -41 -29 -67 -14 -68 42 0 15 52 16 67 1 9 -9 19
-6 39 10 41 33 64 28 64 -13z m258 6 c3 -10 -6 -12 -34 -10 -49 4 -56 24 -7
23 21 0 38 -6 41 -13z m148 -71 c2 -2 15 1 29 7 26 12 43 1 22 -15 -6 -6 -27
-13 -45 -16 -28 -6 -34 -3 -42 19 -6 14 -10 40 -10 57 l1 32 21 -40 c11 -22
22 -42 24 -44z m-1421 35 c18 -13 17 -14 -8 -30 -20 -14 -30 -15 -46 -6 -24
12 -26 21 -9 38 16 16 40 15 63 -2z m215 0 c-30 -16 -110 -27 -110 -16 0 17
36 29 85 29 47 0 49 0 25 -13z m878 -23 c2 -9 -7 -13 -27 -13 -21 0 -31 5 -31
16 0 19 51 16 58 -3z m3397 7 c-3 -5 -15 -10 -26 -10 -10 0 -19 5 -19 10 0 6
12 10 26 10 14 0 23 -4 19 -10z m-891 -6 c25 -10 19 -34 -8 -34 -57 0 -57 -62
0 -68 41 -5 64 -29 64 -69 0 -53 -15 -73 -55 -73 -48 0 -53 18 -10 36 28 11
36 20 33 37 -2 16 -12 23 -35 27 -40 6 -83 43 -83 71 0 51 50 90 94 73z
m-7864 -27 c0 -21 -12 -28 -27 -16 -19 16 -16 29 7 29 11 0 20 -6 20 -13z
m5110 -1 c0 -15 -37 -32 -47 -22 -9 8 17 36 33 36 8 0 14 -6 14 -14z m2935 4
c-3 -5 -12 -10 -18 -10 -7 0 -6 4 3 10 19 12 23 12 15 0z m-2497 -17 c-2 -13
-13 -18 -36 -18 -37 0 -44 17 -10 27 40 11 50 9 46 -9z m2169 -5 c11 -13 25
-38 32 -57 13 -41 1 -61 -38 -61 -15 0 -36 -6 -47 -14 -15 -12 -17 -18 -8 -33
9 -13 23 -17 53 -16 34 1 41 -1 41 -17 0 -19 -19 -30 -53 -30 -27 0 -75 58
-89 108 -10 37 2 102 24 130 17 20 63 14 85 -10z m683 2 c0 -5 -9 -10 -20 -10
-11 0 -20 5 -20 10 0 6 9 10 20 10 11 0 20 -4 20 -10z m-880 -26 c0 -8 -7 -14
-15 -14 -8 0 -24 -9 -35 -20 -25 -25 -25 -72 -2 -120 16 -31 22 -35 55 -33 30
2 37 -1 37 -16 0 -20 -37 -35 -62 -26 -22 9 -59 71 -69 115 -13 58 5 116 40
128 31 11 51 5 51 -14z m485 -15 c0 -28 -29 -38 -39 -13 -7 19 11 47 28 41 6
-2 11 -14 11 -28z m-8275 -15 c0 -17 -22 -14 -28 4 -2 7 3 12 12 12 9 0 16 -7
16 -16z m7603 -79 c9 -49 21 -91 26 -93 4 -1 17 -9 27 -17 15 -12 16 -16 5
-24 -17 -11 -100 -23 -112 -15 -15 9 -10 22 10 29 29 9 32 30 15 105 -11 51
-20 71 -35 75 -10 4 -19 13 -19 21 0 11 9 14 33 12 l32 -3 18 -90z m-7705 67
c2 -7 -3 -12 -12 -12 -9 0 -16 7 -16 16 0 17 22 14 28 -4z m402 -2 c17 -32 -4
-60 -45 -60 -28 0 -35 4 -35 20 0 23 33 60 55 60 8 0 19 -9 25 -20z m6564 -6
c24 -24 20 -30 -24 -31 -51 -2 -60 -8 -60 -40 0 -39 27 -63 70 -63 32 0 41 -6
65 -40 29 -42 30 -86 1 -125 -20 -28 -94 -27 -113 3 -14 20 -14 22 1 16 9 -3
32 -3 50 0 28 5 36 12 41 37 9 40 -16 69 -60 69 -22 0 -43 9 -64 29 -35 32
-39 62 -17 116 12 27 21 34 48 38 18 2 36 5 40 5 4 1 14 -5 22 -14z m-7094 -3
c0 -5 -9 -11 -20 -14 -22 -6 -28 8 -7 16 19 8 27 8 27 -2z m7685 -103 c-4 -62
-9 -116 -12 -120 -11 -20 -27 -2 -59 70 -19 42 -41 89 -49 104 -19 33 -19 48
0 48 8 0 15 -7 15 -17 0 -23 49 -123 60 -123 19 0 23 16 29 123 0 15 6 27 12
27 7 0 9 -34 4 -112z m-178 85 c2 -6 -11 -16 -30 -22 -42 -14 -50 -46 -34
-133 10 -53 6 -80 -9 -65 -10 10 -46 199 -39 206 12 11 70 30 89 28 11 -1 21
-7 23 -14z m1066 10 c-7 -2 -19 -2 -25 0 -7 3 -2 5 12 5 14 0 19 -2 13 -5z
m-1270 -53 c29 -33 44 -87 29 -102 -5 -5 -29 -12 -52 -15 -48 -7 -60 -25 -34
-54 14 -16 27 -20 51 -16 41 7 51 -7 21 -27 -32 -23 -54 -20 -84 12 -53 55
-66 120 -39 185 23 56 69 63 108 17z m-3435 -33 c2 -10 -3 -17 -12 -17 -10 0
-16 9 -16 21 0 24 23 21 28 -4z m2829 -44 c3 -7 -9 -13 -29 -15 -32 -3 -33 -5
-38 -53 -5 -43 -7 -46 -13 -22 -19 75 -19 76 15 91 38 17 60 16 65 -1z m164
-8 c0 -13 -41 -19 -41 -7 0 11 20 22 33 18 5 -1 8 -6 8 -11z m-363 -22 c2 -9
-8 -13 -32 -13 -20 0 -36 4 -36 9 0 22 60 25 68 4z m452 -13 c13 -25 5 -40
-21 -40 -22 0 -34 22 -25 45 8 21 33 19 46 -5z m-643 -17 c3 -7 -9 -13 -29
-15 -32 -3 -33 -5 -39 -53 -4 -39 -7 -46 -14 -31 -5 11 -9 38 -9 60 -1 34 3
41 24 47 34 10 63 7 67 -8z m-199 -25 c-3 -7 -18 -15 -34 -18 -22 -4 -30 -11
-32 -31 -4 -32 13 -46 57 -51 50 -4 53 -28 4 -28 -31 0 -44 6 -66 31 -31 35
-31 35 -16 78 10 28 15 31 51 31 27 0 38 -4 36 -12z m-868 -19 c0 -12 -37 -12
-44 0 -7 11 14 20 32 13 6 -2 12 -8 12 -13z m1304 -1 c3 -13 7 -36 10 -53 3
-16 8 -40 12 -52 5 -17 0 -25 -25 -37 -50 -26 -79 -21 -98 18 -22 48 -11 84
33 102 19 8 37 21 41 29 8 22 22 18 27 -7z m-3039 -16 c0 -7 -3 -12 -7 -12 -5
0 -17 0 -28 0 -25 0 -26 17 -2 23 24 6 37 2 37 -11z m-1355 -32 c31 -39 31
-40 17 -82 -16 -47 -49 -66 -118 -67 -30 -1 -43 6 -69 35 -28 32 -31 41 -25
73 4 20 9 40 12 44 10 17 68 36 110 37 36 0 45 -5 73 -40z m4735 30 c-3 -5
-15 -10 -26 -10 -11 0 -17 5 -14 10 3 6 15 10 26 10 11 0 17 -4 14 -10z m1537
-40 c4 -19 17 -82 28 -140 19 -103 33 -130 67 -130 21 0 15 -28 -7 -35 -44
-14 -65 22 -94 168 -20 101 -25 113 -49 125 -46 22 -31 53 23 49 19 -2 26 -9
32 -37z m-2492 19 c0 -5 -14 -15 -30 -21 -28 -9 -30 -13 -24 -43 5 -28 2 -34
-15 -40 -11 -3 -29 -2 -39 4 -22 12 -97 -21 -115 -50 -12 -20 -57 -27 -57 -9
0 5 14 16 30 25 25 13 30 22 30 52 l0 36 43 -6 c49 -7 113 17 120 46 6 19 57
25 57 6z m3760 -9 c0 -5 -4 -10 -10 -10 -5 0 -10 5 -10 10 0 6 5 10 10 10 6 0
10 -4 10 -10z m-4000 -29 c0 -16 -28 -20 -47 -6 -17 13 -16 14 15 15 17 0 32
-4 32 -9z m2420 -5 c0 -7 -9 -20 -20 -27 -24 -17 -17 -59 9 -59 9 0 23 -4 31
-10 12 -7 9 -13 -14 -35 -16 -15 -25 -32 -23 -43 14 -48 29 -154 23 -159 -13
-13 -25 14 -41 92 -13 62 -22 84 -41 99 -22 16 -23 20 -11 35 8 9 17 36 20 60
3 24 11 48 19 52 20 13 48 10 48 -5z m725 -38 c18 -37 25 -68 25 -110 0 -50
-3 -60 -24 -73 -50 -33 -95 25 -104 130 -6 77 7 105 48 105 26 0 33 -7 55 -52z
m-2570 -9 c15 -29 48 -39 60 -19 10 16 23 12 21 -6 -3 -19 -19 -29 -62 -38
-29 -6 -31 -5 -42 32 -23 75 -9 93 23 31z m2377 -59 c16 -78 33 -110 60 -110
4 0 8 -7 8 -15 0 -22 -105 -47 -123 -29 -4 4 4 19 17 35 21 24 22 33 15 71 -4
24 -8 49 -9 56 0 7 -12 24 -26 37 -30 28 -24 47 14 43 25 -3 28 -9 44 -88z
m-3788 50 c46 -17 4 -60 -44 -45 -23 7 -26 25 -8 43 15 15 20 15 52 2z m246 0
c0 -5 -9 -10 -19 -10 -11 0 -23 -4 -26 -10 -7 -11 -78 -14 -88 -3 -4 3 -2 12
4 20 13 15 129 18 129 3z m3853 -11 c3 -12 0 -22 -9 -26 -19 -7 -44 15 -37 33
8 21 40 17 46 -7z m-3009 5 c9 -3 16 -10 16 -16 0 -14 -63 -5 -68 10 -4 13 25
16 52 6z m2346 -26 c24 -26 39 -76 41 -139 3 -60 -14 -89 -50 -89 -34 0 -65
45 -81 117 -23 99 35 170 90 111z m-2144 -34 c-8 -20 -76 -19 -76 1 0 8 8 15
18 15 10 0 27 6 38 14 17 13 19 13 22 0 2 -8 1 -22 -2 -30z m1734 27 c5 -11
22 -21 37 -23 36 -4 40 -25 8 -40 -26 -12 -27 -15 -21 -65 9 -78 20 -100 55
-108 17 -4 31 -12 31 -20 0 -14 -45 -29 -61 -20 -18 12 -38 62 -45 115 -7 54
-31 90 -59 90 -21 0 -19 13 5 35 11 10 20 26 20 37 0 24 17 23 30 -1z m-3290
-42 c-7 -11 -14 -18 -17 -15 -8 8 5 36 17 36 7 0 7 -6 0 -21z m2793 -19 c31
-25 44 -88 27 -130 -8 -20 -21 -30 -45 -34 -48 -9 -58 -25 -46 -77 14 -61 13
-71 -6 -67 -19 3 -39 72 -53 178 -4 36 -11 77 -15 91 -9 37 11 50 96 58 9 0
28 -8 42 -19z m-6775 -24 c2 -16 10 -39 19 -52 8 -12 13 -35 11 -51 -3 -25 -7
-28 -42 -28 -59 0 -69 25 -28 68 34 35 41 57 18 57 -17 0 -38 24 -29 34 4 4
16 6 28 4 14 -2 21 -12 23 -32z m7186 25 c8 -12 -13 -27 -45 -35 -23 -5 -27
-12 -31 -48 -2 -23 0 -66 6 -95 8 -47 5 -75 -9 -62 -6 6 -47 220 -43 224 23
19 113 31 122 16z m-233 -49 c25 -29 39 -80 39 -139 0 -70 -12 -93 -50 -93
-24 0 -35 8 -56 40 -22 33 -27 52 -28 108 -1 45 4 75 13 85 18 22 63 22 82 -1z
m-7213 -25 c2 -11 -5 -20 -20 -26 -18 -7 -24 -5 -31 11 -4 11 -4 24 -1 29 10
16 48 6 52 -14z m-105 -33 c-7 -20 -40 -17 -47 3 -5 11 0 22 11 31 15 11 20
10 30 -4 6 -9 9 -22 6 -30z m5107 26 c0 -5 -6 -10 -14 -10 -8 0 -18 5 -21 10
-3 6 3 10 14 10 12 0 21 -4 21 -10z m-5242 -27 c5 -17 -26 -29 -40 -15 -6 6
-7 15 -3 22 9 14 37 9 43 -7z m6880 -31 c2 -8 -8 -12 -27 -12 -37 0 -43 -9
-44 -67 0 -53 -13 -32 -19 32 -3 36 -1 39 32 51 39 14 52 13 58 -4z m-3014
-11 c15 -16 15 -19 1 -31 -13 -11 -19 -11 -32 3 -15 15 -12 47 5 47 5 0 16 -8
26 -19z m946 3 c0 -17 -22 -14 -28 4 -2 7 3 12 12 12 9 0 16 -7 16 -16z m2230
0 c0 -2 -9 -4 -20 -4 -11 0 -20 4 -20 9 0 5 9 7 20 4 11 -3 20 -7 20 -9z
m-362 -21 c2 -9 -9 -13 -40 -13 -40 1 -42 2 -23 16 23 17 56 15 63 -3z m454
-18 c-7 -37 -36 -45 -52 -15 -15 27 -4 42 28 38 21 -2 26 -8 24 -23z m-633
-26 c12 -20 11 -21 -6 -14 -44 19 -58 12 -69 -35 l-11 -45 -14 44 c-12 40 -11
45 6 57 29 22 78 18 94 -7z m220 -27 c40 -151 41 -145 -26 -158 -46 -9 -60 0
-72 41 -14 50 0 80 42 95 36 11 54 34 37 45 -6 4 -10 11 -10 16 0 23 20 -4 29
-39z m3211 23 c0 -8 -9 -15 -20 -15 -22 0 -27 15 -7 23 21 9 27 7 27 -8z
m-3632 -12 c2 -8 -6 -13 -20 -13 -39 0 -61 -22 -53 -53 6 -23 12 -27 45 -27
52 0 77 -31 72 -89 -3 -34 -9 -44 -29 -52 -29 -11 -67 -3 -57 12 3 5 21 16 40
24 23 9 34 21 34 34 0 24 -32 44 -55 35 -10 -4 -27 4 -47 25 -26 27 -30 36
-25 68 4 20 12 40 19 45 18 12 71 5 76 -9z m3572 -2 c0 -12 -29 -23 -41 -15
-5 3 -7 10 -4 15 8 12 45 12 45 0z m-4440 -30 c0 -17 -3 -18 -29 -8 -34 13
-31 27 5 27 17 0 24 -6 24 -19z m1630 9 c0 -12 -28 -25 -36 -17 -9 9 6 27 22
27 8 0 14 -5 14 -10z m2200 -8 c0 -13 -12 -22 -22 -16 -10 6 -1 24 13 24 5 0
9 -4 9 -8z m-140 -12 c0 -5 -7 -10 -16 -10 -8 0 -12 5 -9 10 3 6 10 10 16 10
5 0 9 -4 9 -10z m-2997 -7 c11 -10 -13 -33 -35 -33 -23 0 -32 -22 -24 -55 5
-21 12 -25 41 -25 24 0 35 -5 35 -15 0 -19 -38 -20 -59 -1 -24 20 -94 26 -116
10 -10 -8 -27 -14 -37 -14 -10 0 -23 -11 -28 -24 -8 -23 -55 -41 -65 -25 -6 9
34 39 53 39 10 0 13 11 10 38 l-3 37 45 0 c51 1 95 19 127 52 22 23 44 29 56
16z m404 -30 c-3 -10 -5 -4 -5 12 0 17 2 24 5 18 2 -7 2 -21 0 -30z m290 -10
c-3 -10 -5 -2 -5 17 0 19 2 27 5 18 2 -10 2 -26 0 -35z m113 2 c0 -17 -2 -17
-10 -5 -5 8 -10 24 -10 35 0 17 2 17 10 5 5 -8 10 -24 10 -35z m2580 -2 c0
-10 -6 -13 -16 -9 -9 3 -21 6 -27 6 -7 0 -3 7 7 15 21 16 36 11 36 -12z
m-6020 -14 c0 -15 -5 -20 -22 -17 -34 5 -37 38 -4 38 20 0 26 -5 26 -21z
m2383 12 c12 -1 8 -18 -5 -24 -19 -7 -60 11 -53 23 3 5 16 8 28 6 12 -3 25 -5
30 -5z m2607 -3 c0 -25 21 -88 29 -88 5 0 14 13 21 30 18 44 100 56 100 14 0
-8 -10 -14 -23 -14 -13 0 -28 -5 -35 -12 -17 -17 4 -48 32 -48 42 0 71 -33 70
-79 -2 -52 -18 -71 -60 -71 -19 0 -34 2 -34 4 0 2 -3 11 -6 19 -4 12 3 16 28
19 28 2 33 7 33 28 0 19 -6 26 -31 31 -17 3 -42 13 -55 22 -37 26 -42 21 -35
-36 12 -90 -20 -130 -89 -113 -37 9 -54 43 -75 155 -23 119 -24 131 -7 131 7
0 19 -35 30 -92 25 -125 40 -158 70 -158 39 0 51 23 43 83 -8 70 -23 148 -31
170 -5 12 -2 17 9 17 9 0 16 -6 16 -12z m-6345 -45 c40 -44 38 -36 21 -93 -12
-41 -17 -46 -57 -57 -83 -22 -106 -17 -135 26 -22 33 -25 47 -19 80 8 48 24
63 78 72 72 11 77 10 112 -28z m4346 -33 c8 0 20 5 27 12 9 9 13 7 18 -6 9
-22 -4 -34 -41 -38 -28 -3 -30 -6 -29 -41 1 -21 -1 -35 -5 -32 -7 8 -30 112
-30 140 0 18 2 17 22 -7 13 -16 30 -28 38 -28z m2319 40 c0 -5 -7 -10 -16 -10
-8 0 -12 5 -9 10 3 6 10 10 16 10 5 0 9 -4 9 -10z m350 -20 c0 -5 -9 -10 -19
-10 -11 0 -23 5 -26 10 -4 6 5 10 19 10 14 0 26 -4 26 -10z m-3852 -17 c2 -8
-5 -13 -17 -13 -11 0 -23 -5 -27 -11 -3 -6 -18 -9 -33 -6 -14 3 -33 1 -43 -4
-10 -5 -19 -5 -22 0 -10 16 5 40 27 44 41 9 110 2 115 -10z m2745 -3 c3 -13
17 -22 36 -26 32 -7 53 -25 34 -31 -34 -12 -47 -32 -45 -69 4 -67 21 -103 50
-110 40 -10 44 -14 31 -30 -18 -22 -57 -17 -74 10 -9 13 -20 52 -26 87 -6 38
-16 68 -25 74 -50 32 -51 33 -25 54 15 11 22 24 18 34 -6 15 0 27 14 27 3 0 9
-9 12 -20z m-2960 -10 c5 -4 -7 -17 -26 -29 -41 -25 -41 -25 -61 -5 -12 12
-14 20 -5 36 9 17 17 19 47 13 21 -4 41 -10 45 -15z m3677 -14 c0 -32 -18 -43
-37 -23 -20 20 -10 47 17 47 15 0 20 -7 20 -24z m-3960 -35 c0 -17 -12 -41
-21 -41 -10 0 -12 33 -2 43 9 10 23 9 23 -2z m65 -1 c3 -6 -5 -10 -19 -10 -14
0 -28 5 -31 10 -3 6 5 10 19 10 14 0 28 -4 31 -10z m3039 -6 c24 -9 19 -34 -7
-34 -13 0 -28 -5 -35 -12 -17 -17 -15 -93 3 -127 17 -34 32 -41 69 -34 23 5
27 3 24 -13 -4 -21 -46 -35 -70 -22 -66 33 -93 174 -43 223 25 26 33 29 59 19z
m916 2 c0 -3 -4 -8 -10 -11 -5 -3 -10 -1 -10 4 0 6 5 11 10 11 6 0 10 -2 10
-4z m350 -5 c0 -5 -9 -11 -20 -14 -11 -3 -20 -1 -20 3 0 5 8 11 18 13 9 3 18
5 20 6 1 0 2 -3 2 -8z m-1675 -23 c6 -14 21 -24 38 -26 19 -2 27 -9 27 -23 0
-10 -7 -19 -15 -19 -28 0 -35 -34 -19 -96 18 -69 29 -84 60 -84 13 0 24 -5 24
-10 0 -13 -46 -31 -63 -24 -20 7 -47 59 -47 91 0 54 -19 99 -46 112 l-27 12
22 23 c11 12 21 32 21 44 0 28 13 28 25 0z m-3568 -14 c-9 -9 -28 6 -21 18 4
6 10 6 17 -1 6 -6 8 -13 4 -17z m3803 -14 c16 -17 32 -40 34 -53 16 -72 26
-130 26 -142 0 -15 -50 -35 -90 -35 -20 0 -30 8 -43 34 -23 49 -11 86 36 109
56 28 45 62 -22 69 -46 4 -51 25 -9 37 18 5 34 10 36 10 1 1 16 -13 32 -29z
m-2240 -1 c0 -5 -4 -9 -10 -9 -5 0 -10 7 -10 16 0 8 5 12 10 9 6 -3 10 -10 10
-16z m-1072 -11 c-3 -7 -11 -13 -18 -13 -7 0 -15 6 -17 13 -3 7 4 12 17 12 13
0 20 -5 18 -12z m2572 -18 c4 0 10 -8 12 -18 4 -15 -1 -18 -31 -19 -41 -1 -71
-31 -71 -72 0 -14 7 -53 14 -86 16 -66 46 -100 80 -91 12 3 31 9 44 12 19 5
21 3 16 -12 -10 -28 -34 -44 -66 -44 -31 0 -56 21 -93 80 -27 43 -39 49 -49
25 -9 -23 -53 -19 -61 6 -9 27 2 37 45 41 l35 3 5 60 c7 88 45 133 98 119 8
-2 17 -4 22 -4z m-1455 -13 c11 -9 14 -16 7 -21 -15 -9 -42 4 -42 20 0 18 11
18 35 1z m-4937 -9 c7 -7 12 -22 12 -34 0 -12 4 -24 10 -26 18 -6 29 -64 16
-89 -13 -27 -54 -36 -86 -19 -25 14 -25 30 0 63 24 31 25 45 4 68 -31 34 12
69 44 37z m3592 2 c0 -5 -4 -10 -10 -10 -5 0 -10 5 -10 10 0 6 5 10 10 10 6 0
10 -4 10 -10z m3185 -21 c18 -34 50 -187 41 -196 -16 -17 -34 11 -41 64 -13
104 -43 147 -75 108 -13 -15 -9 -96 7 -169 4 -22 3 -28 -8 -24 -16 5 -42 118
-43 187 -1 40 2 46 24 52 56 16 79 10 95 -22z m-208 -21 c42 -48 61 -149 39
-203 -12 -29 -20 -35 -45 -35 -55 0 -98 88 -88 184 7 73 53 99 94 54z m-3623
-14 c25 -25 20 -63 -8 -70 -33 -8 -43 0 -48 36 -3 21 0 34 11 40 22 13 27 12
45 -6z m1576 -4 c13 -9 13 -11 1 -19 -16 -10 -51 3 -51 19 0 13 31 13 50 0z
m-4775 -21 c9 -14 -24 -49 -45 -49 -17 0 -34 36 -24 52 7 12 62 10 69 -3z
m-115 -19 c6 -11 18 -20 28 -20 14 0 15 -2 2 -9 -8 -6 -18 -7 -22 -4 -5 2 -15
0 -22 -6 -20 -16 -46 -2 -46 24 0 37 43 47 60 15z m3078 -2 c26 -26 8 -58 -33
-58 -19 0 -29 38 -15 55 15 18 32 19 48 3z m-3200 -28 c1 -25 -3 -30 -22 -30
-12 0 -31 6 -42 14 -19 15 -19 15 1 30 11 8 29 16 41 16 17 0 21 -6 22 -30z
m6486 -12 c20 -28 21 -44 2 -29 -8 7 -27 11 -43 9 -27 -3 -28 -6 -33 -63 l-5
-60 -12 41 c-7 23 -13 54 -13 71 0 24 6 31 33 40 49 16 55 15 71 -9z m164 -5
c2 -8 -6 -13 -22 -13 -28 0 -43 15 -24 23 20 8 41 3 46 -10z m-2293 -23 c-3
-5 -15 -10 -26 -10 -10 0 -19 5 -19 10 0 6 12 10 26 10 14 0 23 -4 19 -10z
m1925 -5 c0 -11 -11 -15 -40 -15 -38 0 -49 8 -33 23 3 4 21 7 40 7 23 0 33 -5
33 -15z m-2130 -10 c20 -24 4 -45 -35 -45 -28 0 -35 4 -35 20 0 34 48 51 70
25z m1938 -31 c3 -17 -2 -20 -31 -16 -30 3 -35 1 -41 -22 -7 -27 7 -105 25
-137 12 -23 42 -24 64 -2 16 16 16 24 -1 113 -5 24 -5 24 10 6 10 -12 16 -38
15 -65 -2 -74 -11 -94 -47 -105 -23 -6 -34 -17 -39 -35 -6 -23 -8 -21 -20 24
-8 28 -19 79 -24 115 -6 36 -13 79 -16 97 -5 29 -2 33 28 42 49 14 74 9 77
-15z m431 -36 c5 -29 12 -61 16 -70 4 -10 3 -18 -3 -18 -9 0 -32 94 -32 133 0
36 11 10 19 -45z m-631 14 c2 -7 -9 -15 -27 -18 -17 -4 -35 -12 -40 -18 -14
-17 -2 -56 18 -57 73 -3 103 -30 94 -87 -8 -48 -19 -62 -54 -62 -41 0 -45 17
-6 34 43 17 51 30 37 56 -7 14 -21 20 -42 20 -40 0 -88 43 -88 79 0 37 38 73
74 69 16 -2 31 -9 34 -16z m446 -67 c18 -84 12 -95 -58 -102 -44 -5 -46 -4
-62 30 -24 51 -13 85 36 105 22 10 43 25 46 36 10 29 22 6 38 -69z m334 53
c-5 -15 -48 -24 -48 -10 0 14 12 22 33 22 10 0 17 -5 15 -12z m-1670 -32 c3
-15 -1 -17 -20 -11 -32 10 -35 15 -18 25 20 13 34 7 38 -14z m715 -11 c-3 -9
-19 -23 -35 -31 -23 -12 -29 -21 -26 -42 2 -22 9 -28 33 -30 59 -7 70 -42 14
-42 -17 0 -32 6 -35 15 -4 10 -17 15 -40 13 -18 -1 -36 1 -40 4 -7 8 -92 -36
-108 -56 -6 -8 -22 -17 -34 -21 -20 -6 -23 -4 -20 11 2 11 16 25 31 32 42 20
34 72 -12 72 -26 0 -51 16 -51 32 0 14 57 8 70 -7 27 -33 159 -10 183 32 16
28 80 44 70 18z m-3584 -69 c25 -26 32 -41 28 -58 -3 -13 -8 -34 -11 -47 -8
-34 -14 -38 -79 -50 -68 -12 -78 -9 -111 34 -30 39 -31 50 -11 98 16 39 47 55
111 56 33 1 46 -5 73 -33z m2739 -63 c2 -7 -5 -16 -15 -19 -10 -3 -25 -9 -33
-13 -28 -14 -87 -12 -99 3 -10 12 -7 17 16 30 33 19 124 17 131 -1z m-234 -6
l29 -13 -28 -22 c-29 -23 -69 -29 -80 -11 -4 5 -4 21 -1 35 7 27 33 31 80 11z
m-204 -67 c0 -5 -13 -10 -30 -10 -17 0 -33 -7 -39 -17 -9 -16 -12 -16 -21 -3
-20 31 -11 40 40 40 28 0 50 -4 50 -10z m-456 -36 c24 -9 19 -41 -9 -60 -31
-20 -51 -13 -57 20 -8 39 22 57 66 40z m-3373 -61 c6 -16 17 -41 25 -56 20
-41 17 -70 -10 -96 -53 -50 -126 8 -77 60 25 27 27 57 6 65 -18 7 -19 26 -3
42 21 21 48 14 59 -15z m4502 4 c4 3 7 1 7 -5 0 -14 -2 -14 -24 -6 -9 3 -16
11 -16 16 0 7 5 6 13 -1 8 -6 17 -8 20 -4z m-4755 -80 c7 -34 -152 -84 -175
-55 -6 7 -12 23 -15 35 -5 18 0 23 33 31 42 11 49 8 49 -20 0 -10 5 -18 10
-18 6 0 10 9 10 20 0 39 81 45 88 7z m2950 21 c28 -28 -6 -78 -44 -64 -14 5
-20 57 -7 69 10 11 38 8 51 -5z m1376 -4 c9 -3 16 -13 16 -21 0 -21 -44 -12
-48 10 -4 18 6 21 32 11z m-4561 -61 c3 -16 0 -31 -5 -34 -12 -8 -67 8 -83 23
-14 13 22 38 56 38 21 0 28 -6 32 -27z m3477 -12 c13 -24 13 -68 1 -76 -7 -4
-43 6 -69 20 -1 1 5 18 13 38 17 41 39 48 55 18z m-540 -9 c0 -13 -12 -22 -22
-16 -10 6 -1 24 13 24 5 0 9 -4 9 -8z m-213 -48 c-3 -3 -12 -4 -19 -1 -8 3 -5
6 6 6 11 1 17 -2 13 -5z m-3551 -46 c4 -6 -1 -17 -11 -25 -15 -10 -20 -10 -27
0 -4 6 -3 14 2 15 6 2 8 8 4 13 -3 5 2 9 10 9 8 0 18 -5 22 -12z m4307 -3 c4
-8 2 -17 -3 -20 -6 -4 -10 3 -10 14 0 25 6 27 13 6z m-3773 -41 c0 -8 -5 -12
-10 -9 -6 4 -8 11 -5 16 9 14 15 11 15 -7z m2384 -20 c9 -3 16 -12 16 -18 0
-7 11 -22 25 -34 24 -21 25 -23 10 -52 -9 -17 -14 -38 -13 -47 5 -29 -115 -60
-157 -41 -11 5 -28 26 -39 47 -16 34 -17 43 -5 75 16 45 43 64 100 69 24 2 45
4 46 5 1 1 8 -1 17 -4z"/>
<path d="M11383 3219 c-15 -6 -23 -17 -23 -33 0 -27 18 -37 52 -29 30 8 39 23
28 44 -13 22 -30 28 -57 18z"/>
<path d="M10992 3168 c-25 -25 -4 -140 30 -162 12 -7 21 -6 33 4 14 11 16 24
10 69 -10 84 -41 121 -73 89z"/>
<path d="M10421 3096 c-23 -27 -9 -51 28 -49 42 2 59 17 45 41 -14 22 -57 27
-73 8z"/>
<path d="M9633 2903 c-16 -6 -17 -45 -1 -61 21 -21 57 -14 70 12 15 35 4 56
-29 55 -15 0 -34 -3 -40 -6z"/>
<path d="M11087 2673 c-15 -15 -7 -109 13 -140 22 -37 32 -40 50 -18 16 20 7
108 -15 141 -15 24 -35 31 -48 17z"/>
<path d="M10927 2644 c-4 -4 -7 -25 -7 -46 0 -43 22 -60 46 -37 12 12 10 20
-9 52 -13 21 -26 35 -30 31z"/>
<path d="M11271 2677 c-10 -26 -1 -90 18 -125 8 -16 20 -22 34 -20 20 3 22 8
20 63 -1 33 -8 70 -14 83 -16 29 -47 28 -58 -1z"/>
<path d="M12114 2302 c-18 -12 -23 -40 -9 -52 18 -15 62 -2 68 20 8 31 -30 52
-59 32z"/>
<path d="M11193 2172 c-7 -4 -14 -19 -15 -32 -3 -22 1 -25 35 -28 42 -4 56 13
37 47 -11 21 -35 27 -57 13z"/>
<path d="M10413 1944 c-11 -29 14 -64 46 -64 24 0 29 5 35 31 3 17 3 35 0 40
-9 16 -74 10 -81 -7z"/>
<path d="M12733 1893 c-31 -12 -2 -153 31 -153 26 0 35 31 25 84 -12 65 -26
82 -56 69z"/>
<path d="M12190 1765 c0 -54 23 -115 43 -115 25 0 39 27 32 62 -16 78 -26 98
-51 98 -22 0 -24 -4 -24 -45z"/>
<path d="M11270 1743 c-8 -3 -18 -11 -22 -17 -8 -13 0 -55 15 -73 17 -22 55
-15 74 13 15 24 15 29 2 53 -15 26 -41 35 -69 24z"/>
<path d="M11459 1684 c-10 -12 -10 -27 -1 -71 13 -62 26 -83 53 -83 26 0 34
41 19 98 -20 72 -42 90 -71 56z"/>
<path d="M10704 1466 c-3 -9 -3 -27 0 -41 5 -20 13 -25 37 -25 30 0 49 25 44
60 -3 22 -73 26 -81 6z"/>
<path d="M11761 1121 c-9 -6 -11 -18 -7 -36 5 -20 12 -26 29 -23 17 2 22 10
22 33 0 31 -19 42 -44 26z"/>
<path d="M11175 1101 c-12 -57 29 -147 61 -134 19 7 18 95 -1 133 -21 40 -51
40 -60 1z"/>
<path d="M10420 885 c-18 -22 2 -65 30 -65 23 0 46 40 37 64 -8 20 -51 21 -67
1z"/>
</g>
</svg>
